<svg width="19" height="16" viewBox="0 0 19 16" fill="none" xmlns="http://www.w3.org/2000/svg">
    <path
        d="M17.6559 13.888C17.5294 14.1589 17.2585 14.3534 16.9626 14.3913C16.6554 14.4366 16.3309 14.3072 16.1373 14.0649C15.9223 13.8068 15.8725 13.4264 16.0122 13.1212C16.1771 12.7578 16.3229 12.3842 16.4224 11.9971C16.6217 11.1827 16.5334 10.3055 16.1919 9.54091C15.929 10.0092 15.5072 10.388 15.0052 10.5831C14.3687 10.8422 13.6173 10.7918 13.0186 10.4557C12.498 10.1694 12.0968 9.67508 11.9254 9.10629C11.7309 8.48037 11.8121 7.77324 12.1536 7.2128C12.4065 6.77498 12.7288 6.3731 12.9085 5.89612C13.208 5.13121 13.1997 4.25685 12.9041 3.49258C12.6453 4.39134 12.2155 5.29556 11.4487 5.86787C10.8989 6.28868 10.1404 6.42575 9.48524 6.19046C8.68182 5.9141 8.1034 5.24003 7.64696 4.55312C7.5038 5.07633 7.53943 5.63323 7.68098 6.15291C7.89316 6.99164 7.61358 7.93438 6.96422 8.5099C6.37458 9.04948 5.49925 9.24303 4.7353 9.01321C4.09847 8.83217 3.55697 8.36771 3.26584 7.77485C2.72626 8.59881 2.6412 9.62693 2.73525 10.5838C2.84888 11.7104 3.25941 12.8008 3.89272 13.7371C4.15368 14.1117 4.06669 14.6731 3.70205 14.9485C3.42119 15.1793 2.99942 15.2108 2.68646 15.0262C2.51184 14.9325 2.39211 14.7685 2.29036 14.6032C1.7954 13.8405 1.41857 13.0014 1.18136 12.1236C0.85941 10.9157 0.775313 9.62661 1.05617 8.40205C1.26 7.51517 1.71355 6.69248 2.34525 6.03832L2.54779 5.83577C2.92688 5.50869 3.32779 5.20151 3.77203 4.96783C4.23938 4.73993 4.85888 5.01277 5.00525 5.51222C5.1497 5.92565 4.89034 6.32431 4.84861 6.73068C4.82967 7.05584 5.1497 7.34248 5.471 7.28759C5.76823 7.25806 5.96628 6.94831 5.92937 6.66424C5.89374 6.43858 5.82376 6.21903 5.79552 5.99177C5.63727 4.99576 5.8151 3.95063 6.30556 3.06792C6.50971 2.69879 6.75687 2.35148 7.04351 2.04173C7.3539 1.71465 7.91338 1.68736 8.25619 1.97882C8.47446 2.14509 8.55214 2.41664 8.67026 2.6516C8.91646 3.15844 9.1909 3.6595 9.56453 4.08512C9.71539 4.24562 9.88037 4.41445 10.0974 4.47865C10.2604 4.52487 10.4007 4.39102 10.5069 4.2867C10.8138 3.95609 10.9919 3.5295 11.1242 3.10387C11.2924 2.53316 11.3656 1.92329 11.2568 1.33428C11.198 1.01683 11.3213 0.673374 11.5742 0.471153C11.8548 0.23555 12.2823 0.197674 12.5975 0.385129C12.8704 0.550757 13.1162 0.756829 13.3531 0.969322L13.5971 1.21327C14.1877 1.86423 14.6178 2.6622 14.8146 3.52019C15.0823 4.63979 14.9571 5.84861 14.4592 6.887C14.2474 7.34087 13.9456 7.74403 13.6953 8.17608C13.5695 8.3982 13.6465 8.70378 13.8587 8.84405C14.1151 9.03311 14.5353 8.90439 14.6293 8.59528C14.7167 8.30768 14.7853 8.01494 14.8666 7.72573C14.9455 7.44905 14.9856 7.13865 15.2081 6.93226C15.5182 6.61256 16.0683 6.58046 16.4099 6.86742C16.9835 7.3627 17.4524 7.97739 17.7833 8.65884C18.3878 9.89367 18.5024 11.35 18.1252 12.6689C17.9929 13.0843 17.8389 13.4926 17.6559 13.888Z"
        fill="#E04671" stroke="white" stroke-width="0.5" />
</svg>